Coordinates
version=1
nRows=4
nColumns=63
inDegrees=yes

Units are S.I. units (second, meters, Newtons, ...)
If the header above contains a line with 'inDegrees', this indicates whether rotational values are in degrees (yes) or radians (no).

endheader
time	pelvis_tilt	pelvis_list	pelvis_rotation	pelvis_tx	pelvis_ty	pelvis_tz	hip_flexion_r	hip_adduction_r	hip_rotation_r	knee_angle_r	knee_angle_r_beta	ankle_angle_r	subtalar_angle_r	mtp_angle_r	hip_flexion_l	hip_adduction_l	hip_rotation_l	knee_angle_l	knee_angle_l_beta	ankle_angle_l	subtalar_angle_l	mtp_angle_l	L5_S1_Flex_Ext	L5_S1_Lat_Bending	L5_S1_axial_rotation	L4_L5_Flex_Ext	L4_L5_Lat_Bending	L4_L5_axial_rotation	L3_L4_Flex_Ext	L3_L4_Lat_Bending	L3_L4_axial_rotation	L2_L3_Flex_Ext	L2_L3_Lat_Bending	L2_L3_axial_rotation	L1_L2_Flex_Ext	L1_L2_Lat_Bending	L1_L2_axial_rotation	L1_T12_Flex_Ext	L1_T12_Lat_Bending	L1_T12_axial_rotation	Abs_r3	Abs_r2	Abs_r1	Abs_t1	Abs_t2	neck_flexion	neck_bending	neck_rotation	arm_flex_r	arm_add_r	arm_rot_r	elbow_flex_r	pro_sup_r	wrist_flex_r	wrist_dev_r	arm_flex_l	arm_add_l	arm_rot_l	elbow_flex_l	pro_sup_l	wrist_flex_l	wrist_dev_l
      3.75000000	    -54.03118836	     -2.70089671	     -5.60312943	     -0.24902088	      1.01963926	      0.01751559	    123.24023341	     -2.67335842	     -1.23562837	    118.71131961	      2.07190339	     18.49608363	     -1.44739061	      0.00000000	     87.52499429	     -9.12650018	      5.59982192	     47.19754305	      0.82375253	      8.56376473	      3.48856404	      0.00000000	     -0.07677341	      0.50859148	      0.95819808	     -0.14257590	      0.67642666	      1.01808546	     -0.12613103	      1.23658931	      1.01808546	     -0.08774433	      1.23658931	      0.83842332	     -0.07129179	      1.03711974	      0.77853594	     -0.04386833	      0.78780820	      0.71864856	     -0.54838478	      5.75328849	      5.32921028	      0.00000000	      0.00000000	     -0.00000000	      0.00000000	      0.00000000	     77.46173150	    -14.10938091	     36.22928735	     28.27423336	     30.22660136	      0.00000000	      5.00000325	     70.22321337	    -17.86515200	     26.91294556	     37.66620332	     41.34129103	      0.00000000	      5.00000325
      3.75800000	    -54.16358474	     -2.98621350	     -6.00817059	     -0.24946095	      1.02010735	      0.01809876	    124.27941050	     -2.63026473	     -2.29489078	    117.85176589	      2.05690134	     18.56176036	     -2.83473451	      0.00000000	     87.29461752	     -9.72399186	      5.43471116	     48.18385800	      0.84096697	      8.26065861	      3.37938429	      0.00000000	     -0.07377412	      0.55229770	      1.02252269	     -0.13700591	      0.73455595	      1.08643036	     -0.12120350	      1.34285664	      1.08643036	     -0.08431644	      1.34285664	      0.89470736	     -0.06850665	      1.12624548	      0.83079969	     -0.04215453	      0.85550914	      0.76689202	     -0.52696115	      6.24770208	      5.68696447	      0.00000000	      0.00000000	     -0.00000000	      0.00000000	      0.00000000	     77.60418184	    -13.98395931	     36.14050142	     28.15626401	     30.16406839	      0.00000000	      5.00000308	     70.21910545	    -17.87290617	     26.75716401	     37.47079114	     41.31032916	      0.00000000	      5.00000308
      3.76700000	    -54.24654517	     -3.01543747	     -5.99581264	     -0.24990392	      1.02053665	      0.01825727	    125.21829782	     -2.74598510	     -2.62321743	    116.80249903	      2.03858818	     18.73096618	     -3.07341898	      0.00000000	     87.13053808	     -9.83522773	      5.21238585	     49.42905134	      0.86269969	      8.01835817	      3.27535302	      0.00000000	     -0.07463258	      0.55848415	      1.01160025	     -0.13860017	      0.74278392	      1.07482526	     -0.12261387	      1.35789836	      1.07482526	     -0.08529758	      1.35789836	      0.88515022	     -0.06930382	      1.13886088	      0.82192520	     -0.04264506	      0.86509195	      0.75870019	     -0.53309307	      6.31768439	      5.62621709	      0.00000000	      0.00000000	     -0.00000000	      0.00000000	      0.00000000	     77.67015429	    -13.91519505	     36.09038996	     28.20416271	     30.17593060	      0.00000000	      5.00000303	     70.25802628	    -17.94202580	     26.70281280	     37.37964512	     41.30793999	      0.00000000	      5.00000303
      3.77500000	    -54.35344595	     -3.01674505	     -5.93084350	     -0.25044209	      1.02100301	      0.01838506	    125.97116589	     -2.83886000	     -2.88462788	    115.43603875	      2.01473895	     18.81358207	     -3.29929931	      0.00000000	     87.17464622	     -9.88356926	      5.01153136	     51.04055373	      0.89082571	      7.85988002	      3.04750709	      0.00000000	     -0.07312180	      0.55887972	      0.99254763	     -0.13579449	      0.74331003	      1.05458186	     -0.12013180	      1.35886016	      1.05458186	     -0.08357090	      1.35886016	      0.86847918	     -0.06790090	      1.13966753	      0.80644495	     -0.04178180	      0.86570469	      0.74441073	     -0.52230169	      6.32215922	      5.52025217	      0.00000000	      0.00000000	     -0.00000000	      0.00000000	      0.00000000	     77.70806113	    -13.86142458	     36.02973643	     28.29952592	     30.19653311	      0.00000000	      5.00000300	     70.35006063	    -18.01577658	     26.63894916	     37.30731939	     41.30702940	      0.00000000	      5.00000300
